<svg width="72" height="72" viewBox="0 0 72 72" fill="none" xmlns="http://www.w3.org/2000/svg">
<rect width="72" height="72" rx="36" fill="white"/>
<path d="M36.5004 34.2C40.1455 34.2 43.1004 31.2451 43.1004 27.6C43.1004 23.9549 40.1455 21 36.5004 21C32.8553 21 29.9004 23.9549 29.9004 27.6C29.9004 31.2451 32.8553 34.2 36.5004 34.2Z" stroke="#594EFE" stroke-width="3" stroke-linecap="round" stroke-linejoin="round"/>
<path d="M46.3998 51.3599C50.0449 51.3599 52.9998 48.405 52.9998 44.7599C52.9998 41.1148 50.0449 38.1599 46.3998 38.1599C42.7547 38.1599 39.7998 41.1148 39.7998 44.7599C39.7998 48.405 42.7547 51.3599 46.3998 51.3599Z" stroke="#594EFE" stroke-width="3" stroke-linecap="round" stroke-linejoin="round"/>
<path d="M26.6 51.3599C30.2451 51.3599 33.2 48.405 33.2 44.7599C33.2 41.1148 30.2451 38.1599 26.6 38.1599C22.9549 38.1599 20 41.1148 20 44.7599C20 48.405 22.9549 51.3599 26.6 51.3599Z" stroke="#594EFE" stroke-width="3" stroke-linecap="round" stroke-linejoin="round"/>
</svg>
