<svg xmlns="http://www.w3.org/2000/svg" width="407.044" height="121.858" viewBox="0 0 407.044 121.858">
  <g id="Group_60343" data-name="Group 60343" transform="translate(-6306 17410)">
    <g id="logo" transform="translate(6305.975 -17410.031)">
      <path id="Path_89572" data-name="Path 89572" d="M452.49,523V466h-10v57Zm30.89-1.08a14,14,0,0,0,5.19-5.62l.78,6.7h8.81V484h-10v20c0,3.54-.91,6.31-2.71,8.28a8.78,8.78,0,0,1-6.81,3c-2.92,0-5.06-.88-6.4-2.66s-2-4.31-2-7.66V484h-9.91v22.05q0,8.81,3.94,13.39c2.63,3,6.34,4.56,11.19,4.56a15,15,0,0,0,7.92-2.08ZM531.66,494a8.32,8.32,0,0,1,2.82,6H515.21a9.39,9.39,0,0,1,3.58-6.22,10.74,10.74,0,0,1,6.48-2,9.38,9.38,0,0,1,6.39,2.22Zm1.91,28.25a17.689,17.689,0,0,0,6.23-4.84,19.189,19.189,0,0,0,3.65-6.84H533.3a8.21,8.21,0,0,1-3.09,3.4,9.26,9.26,0,0,1-5.09,1.32,10.13,10.13,0,0,1-6.91-2.47,9.43,9.43,0,0,1-3.16-6.8h29.41c0-.69.08-1.34.11-2s0-1.23,0-1.83a19.569,19.569,0,0,0-2.47-9.75,18.158,18.158,0,0,0-6.83-6.92,19.67,19.67,0,0,0-10-2.52,20.52,20.52,0,0,0-10.57,2.64,18.49,18.49,0,0,0-7,7.38,22.5,22.5,0,0,0-2.53,10.79,21.17,21.17,0,0,0,2.56,10.58,18.169,18.169,0,0,0,7.09,7.09A21,21,0,0,0,525.2,524a19.21,19.21,0,0,0,8.37-1.77Zm25.13.77V502.75c0-4.5,1-8,3.08-10.42a9.62,9.62,0,0,1,7.68-3.67,8.36,8.36,0,0,1,6.94,3.07c1.61,2,2.42,5.1,2.42,9.13V523h6.55V502.75q0-6.75,3.08-10.42a9.71,9.71,0,0,1,7.76-3.67,8.36,8.36,0,0,1,6.94,3.07c1.61,2,2.42,5.1,2.42,9.13V523H612V500.17c0-5.83-1.39-10.14-4.14-12.95s-6.4-4.22-11.02-4.22a15.14,15.14,0,0,0-7.69,2.05,14.9,14.9,0,0,0-5.58,5.59,12.53,12.53,0,0,0-5.11-5.75,15.82,15.82,0,0,0-7.9-1.89,14.25,14.25,0,0,0-7,1.73,13.271,13.271,0,0,0-5,4.88l-.47-5.61h-5.93v39Zm69.14,0V484h-6.56v39Zm16.74,0V502.75c0-4.5,1.09-8,3.31-10.42a10.72,10.72,0,0,1,8.31-3.67q10,0,10,12.2V523h6.54V500.17q0-8.75-4.09-12.95t-11-4.22a15.17,15.17,0,0,0-7.95,2.12,14.14,14.14,0,0,0-5.38,5.83L644,484h-6v39Zm58.09-1v-5.66h-4c-2.5,0-4.25-.42-5.24-1.29s-1.48-2.52-1.48-5v-21.4H703.3V483H691.91v-9.5h-5.69l-.86,9.5h-6.7v5.66h6.7v21.42q0,6.75,3,9.34c2,1.72,4.82,2.58,8.36,2.58Z" transform="translate(-296.23 -438.5)" fill="#fff" fill-rule="evenodd"/>
      <path id="Path_89573" data-name="Path 89573" d="M326,540a3.22,3.22,0,0,0,2.68-1.44,3.29,3.29,0,0,0-.88-4.53c-2.43-1.66-6.45-4.46-11.75-8.35-10.53-7.72-19.66-18.9-7.62-43.28,6.06-12.28,16.9-24.44,24-32.24v107a3.23,3.23,0,0,0,6.46,0V544.6c5.77-2.83,22.88-11.87,30.62-23.07,5.09-7.36,6.16-17.62,2.8-26.77A24.43,24.43,0,0,0,363,482.45l3.59-2.63a3.29,3.29,0,0,0,1-4.1c-9.07-18.54-28.63-35.39-29.84-36.43h0a3.2,3.2,0,0,0-3.44-.45c-.4.19-3.64,3.71-5.38,5.61-7.27,7.95-19.44,21.26-26.28,35.1-14.44,29.24-1.43,43.39,9.61,51.49,5.38,4,9.46,6.79,11.94,8.48a3.219,3.219,0,0,0,1.8.48Zm12.9-2.77v-88.1c6,5.81,15.71,16.11,21.67,27l-17.13,12.56a3.29,3.29,0,0,0-.73,4.56,3.21,3.21,0,0,0,4.51.73l9.93-7.28c3.94,1.45,7.23,5.13,9.12,10.29,2.63,7.17,1.85,15.11-2,20.74-5.91,8.5-18.58,15.95-25.4,19.54Z" transform="translate(-296.23 -438.5)" fill="#3fd6d4" fill-rule="evenodd"/>
      <path id="Path_89574" data-name="Path 89574" d="M627.76,473.7a4.44,4.44,0,0,0,1.33-3.28,4.2,4.2,0,0,0-1.33-3.15,4.45,4.45,0,0,0-3.2-1.27,4.35,4.35,0,0,0-3.23,1.27,4.24,4.24,0,0,0-1.29,3.15,4.49,4.49,0,0,0,1.29,3.28,4.26,4.26,0,0,0,3.23,1.3,4.36,4.36,0,0,0,3.2-1.3Z" transform="translate(-296.23 -438.5)" fill="#3fd6d4" fill-rule="evenodd"/>
    </g>
    <path id="Path_89575" data-name="Path 89575" d="M5.658,0V-57.4H29.192a24.072,24.072,0,0,1,10.086,1.886,13.963,13.963,0,0,1,6.191,5.207A14.083,14.083,0,0,1,47.56-42.64a13.292,13.292,0,0,1-1.886,7.3,12.809,12.809,0,0,1-4.961,4.551,16.935,16.935,0,0,1-6.765,1.845l1.312-.9a14.063,14.063,0,0,1,7.011,2.091,13.825,13.825,0,0,1,4.838,5.125,14.2,14.2,0,0,1,1.763,6.97A14.942,14.942,0,0,1,46.658-7.54a14.984,14.984,0,0,1-6.4,5.535A23.549,23.549,0,0,1,30.012,0Zm11.07-9.02h11.48q4.51,0,6.97-2.05a7.251,7.251,0,0,0,2.46-5.9A7.5,7.5,0,0,0,35.1-23a10.514,10.514,0,0,0-7.052-2.173H16.728Zm0-24.436h10.66q4.346,0,6.6-1.968A7.005,7.005,0,0,0,36.244-41a7.032,7.032,0,0,0-2.255-5.535q-2.255-2.009-6.683-2.009H16.728Z" transform="translate(6397 -17326)" fill="#fff"/>
  </g>
</svg>
