<svg width="32" height="32" viewBox="0 0 32 32" fill="none" xmlns="http://www.w3.org/2000/svg">
<path fill-rule="evenodd" clip-rule="evenodd" d="M16 31C24.2843 31 31 24.2843 31 16C31 7.71573 24.2843 1 16 1C7.71573 1 1 7.71573 1 16C1 24.2843 7.71573 31 16 31ZM9.17083 15.2819C8.73912 15.7136 8.73913 16.4136 9.17083 16.8453L15.25 22.9244C15.6817 23.3561 16.3816 23.3561 16.8133 22.9244L22.8925 16.8453C23.3242 16.4136 23.3242 15.7136 22.8925 15.2819L16.8133 9.20275C16.3816 8.77105 15.6817 8.77105 15.25 9.20275L9.17083 15.2819Z" fill="url(#paint0_linear_3002_10886)"/>
<defs>
<linearGradient id="paint0_linear_3002_10886" x1="1" y1="31" x2="37.0451" y2="18.6656" gradientUnits="userSpaceOnUse">
<stop stop-color="#216FFF"/>
<stop offset="1" stop-color="#A420FC"/>
</linearGradient>
</defs>
</svg>
